<svg width="186" height="128" viewBox="0 0 186 128" fill="none" xmlns="http://www.w3.org/2000/svg">
<g clip-path="url(#clip0_2127_42)">
<path d="M71.5194 58.2778C71.5194 61.2127 71.5813 63.6979 71.4771 66.1747C71.45 66.8154 70.9935 67.5153 70.5734 68.0462C67.9056 71.4139 58.3777 83.1038 57.3936 87.5087C56.4823 91.5882 57.9322 94.5434 61.6731 95.9517C64.8067 97.1352 68.036 96.9517 71.2433 96.5029C78.3389 95.5121 85.0414 93.0066 91.5543 90.0455C96.751 87.6786 101.925 85.1207 106.752 82.0269C113.28 77.8434 119.343 72.8975 123.986 66.348C125.213 64.615 126.181 62.7131 126.86 60.7021C127.904 57.5745 127.029 55.7891 124.15 54.4468C123.079 53.9506 121.912 53.6328 120.762 53.402C119.612 53.1712 118.415 53.1526 117.136 53.0309V49.6826C121.561 49.123 125.907 48.9311 129.58 51.801C132.745 54.2735 133.962 57.8703 133.117 62.0648C132.347 65.8898 130.447 69.0919 128.108 72.0395C123.789 77.4799 118.633 81.911 112.988 85.7031C99.8 94.562 85.5996 100.829 70.2084 103.925C65.8044 104.81 61.3775 105.033 56.8981 104.219C49.7196 102.915 47.0433 95.748 48.7676 89.764C50.9171 82.3438 55.4058 76.6473 60.1537 71.0741C61.4046 69.6067 69.8256 60.0385 71.5194 58.2778Z" fill="url(#paint0_linear_2127_42)"/>
<path d="M95.0767 86.9627V0.000976562C100.888 0.000976562 106.408 0.000976562 111.93 0.000976562C113.433 0.000976562 113.195 1.13961 113.208 2.02466C113.278 6.5268 113.336 11.0289 113.344 15.5319C113.378 34.56 113.375 53.588 113.45 72.616C113.456 74.1511 113.064 75.2289 111.789 76.0894C107.114 79.2449 102.479 82.4614 97.8021 85.6161C97.0407 86.1266 96.148 86.4403 95.0767 86.9627Z" fill="url(#paint1_linear_2127_42)"/>
<path d="M91.6483 11.5857C91.6483 12.6001 91.6483 13.3161 91.6483 14.0295C91.6811 37.7102 91.7008 61.3908 91.7076 85.0714C91.7076 85.7866 91.2841 86.9108 90.7446 87.1543C85.1473 89.6902 79.4856 92.0782 73.2379 94.7697C73.2379 91.3039 73.2311 88.5262 73.2379 85.7477C73.3101 62.1516 73.3875 38.556 73.4699 14.9611C73.4826 11.6871 72.7077 11.5874 76.9211 11.5857C81.7207 11.584 86.5176 11.5857 91.6483 11.5857Z" fill="url(#paint2_linear_2127_42)"/>
<path d="M144.82 15.5537V27.8403C143.35 27.2486 141.856 26.7491 140.461 26.0525C139.211 25.4278 138.216 25.5741 137.021 26.2664C130.863 29.8387 124.656 33.3231 118.459 36.8328C117.789 37.2123 117.104 37.5632 116.263 38.0162C116.263 34.345 116.204 30.9638 116.328 27.5884C116.346 27.0813 117.144 26.4752 117.712 26.1337C120.329 24.5639 122.994 23.0762 125.634 21.5461C126.166 21.2376 126.667 20.8699 127.243 20.4903C126.38 19.4219 124.127 19.5901 125.066 17.3432L144.82 15.5537Z" fill="url(#paint3_linear_2127_42)"/>
<path d="M4.34388 124.339C4.34388 124.461 4.4218 124.522 4.57848 124.522H13.0071C12.6768 125.058 12.3905 125.508 12.1483 125.874C11.9061 126.24 11.6452 126.62 11.3657 127.014C11.0879 127.413 10.8452 127.742 10.6374 128H1.17045C0.75433 128 0.455084 127.84 0.272713 127.52C0.0903414 127.2 -0.000562003 126.805 2.61396e-06 126.337C0.00451989 125.87 0.0746528 125.407 0.208345 124.96C0.347375 124.474 0.539061 124.003 0.78002 123.558C1.05609 123.11 1.36943 122.686 1.71672 122.29C2.11473 121.824 2.54488 121.386 3.00404 120.979C3.43253 120.595 3.89904 120.255 4.39639 119.965C4.86502 119.697 5.28115 119.563 5.64476 119.562H9.59905C9.69854 119.523 9.79433 119.475 9.88531 119.419C10.0219 119.348 10.1524 119.265 10.2757 119.173C10.3274 119.138 10.3969 119.088 10.4832 119.03C10.5696 118.971 10.6137 118.931 10.6137 118.913L10.6916 118.783C10.8305 118.627 10.8999 118.394 10.8999 118.082C10.8999 117.874 10.839 117.77 10.7178 117.77H2.41797C2.57501 117.462 2.74889 117.164 2.93883 116.875C3.14605 116.555 3.36286 116.239 3.58927 115.927C3.81568 115.616 4.04153 115.317 4.26681 115.031L4.89099 114.239H14.0759C14.273 114.23 14.4683 114.28 14.6373 114.382C14.8062 114.483 14.9412 114.633 15.0253 114.811C15.224 115.191 15.3237 115.658 15.3243 116.212C15.3305 117.139 15.0971 118.051 14.6467 118.861C14.365 119.348 14.0338 119.805 13.6584 120.224C13.2442 120.696 12.7961 121.138 12.3177 121.545C11.8735 121.929 11.3894 122.264 10.8737 122.545C10.3875 122.804 9.93585 122.934 9.51859 122.934H5.3585C5.29322 122.937 5.22922 122.953 5.17079 122.982C5.11236 123.011 5.06086 123.053 5.01973 123.103C4.91256 123.219 4.8167 123.345 4.73347 123.479L4.34388 124.339Z" fill="#044973"/>
<path d="M26.0658 124.757C25.7668 125.343 25.4001 125.892 24.9733 126.393C24.5866 126.852 24.1292 127.246 23.6182 127.561C23.1662 127.846 22.6435 127.999 22.109 128.003C21.2641 128.003 20.4219 127.908 19.5987 127.718C18.8031 127.541 18.0531 127.2 17.3967 126.718C16.7553 126.241 16.235 125.597 15.8358 124.784C15.4366 123.97 15.2373 122.941 15.2379 121.694V121.642C15.245 120.768 15.3899 119.9 15.6673 119.071C15.9371 118.221 16.3315 117.416 16.8377 116.682C17.3053 116 17.8913 115.406 18.568 114.93C19.2269 114.472 19.9205 114.242 20.6489 114.242H29.2655C28.8663 114.9 28.4632 115.52 28.0561 116.101C27.6442 116.683 27.1874 117.231 26.69 117.741H21.279C20.9318 117.741 20.6153 117.91 20.3296 118.248C20.0299 118.608 19.7805 119.006 19.5885 119.432H25.2333C25.8578 119.588 26.2999 119.861 26.5596 120.25C26.8193 120.64 26.9494 121.137 26.95 121.743C26.9501 121.934 26.9371 122.125 26.9111 122.314C26.8851 122.505 26.8549 122.713 26.8204 122.937C26.6208 123.564 26.3684 124.173 26.0658 124.757ZM19.5885 122.729L19.7181 122.963C19.8894 123.326 20.0849 123.677 20.3033 124.014C20.5027 124.317 20.75 124.468 21.0453 124.468H22.242L22.762 123.482C22.727 123.327 22.6791 123.174 22.6188 123.027C22.5579 122.881 22.3975 122.781 22.1378 122.729H19.5885Z" fill="#044973"/>
<path d="M45.0031 128L47.2406 120.263L41.595 128H40.1383L38.9941 120.263L36.7565 128H32.7506L36.7828 114.239H41.8034L42.8697 121.145L47.969 114.239H53.0158L48.9836 128H45.0031Z" fill="#044973"/>
<path d="M54.2117 114.239H58.2185L54.2117 128H50.2057L54.2117 114.239Z" fill="#044973"/>
<path d="M55.4059 128L59.4381 114.239H63.4186L60.4027 124.495H67.0087C67.0257 124.495 66.9444 124.643 66.7623 124.937C66.5802 125.231 66.3583 125.573 66.0983 125.962C65.8383 126.351 65.5656 126.741 65.2793 127.13C65.0619 127.437 64.8228 127.728 64.5637 128H55.4059Z" fill="#044973"/>
<path d="M82.9572 114.239C82.8102 114.564 82.645 114.88 82.4626 115.187C82.2367 115.577 81.9939 115.962 81.7342 116.342C81.5029 116.686 81.2512 117.015 80.9804 117.329C80.7371 117.606 80.5635 117.745 80.4596 117.745H74.0382L72.8669 121.821L74.8445 119.432H79.6567L76.6637 122.938H72.5273L72.0589 124.495H80.0454C80.0274 124.53 79.9926 124.603 79.9413 124.716C79.8896 124.829 79.8329 124.946 79.7719 125.067C79.7109 125.188 79.655 125.3 79.6025 125.405C79.5739 125.469 79.539 125.53 79.4983 125.587C79.3451 125.84 79.1754 126.083 78.9902 126.314C78.7734 126.591 78.5608 126.855 78.3524 127.106C78.1441 127.357 77.962 127.568 77.8062 127.741C77.6503 127.911 77.5631 128.001 77.5462 128.001H67.0629L71.0951 114.24L82.9572 114.239Z" fill="#044973"/>
<path d="M89.9553 123.638V123.483C89.9545 123.338 89.9368 123.195 89.9028 123.054C89.8684 122.907 89.7905 122.834 89.6691 122.834H85.5064C85.098 122.836 84.7002 122.704 84.3749 122.457C84.0281 122.196 83.7363 121.87 83.5161 121.496C83.2771 121.094 83.0933 120.662 82.9699 120.211C82.8429 119.764 82.7774 119.301 82.7751 118.835C82.7883 118.351 82.8851 117.872 83.0613 117.42C83.2529 116.89 83.5062 116.385 83.816 115.914C84.1023 115.467 84.4527 115.065 84.856 114.719C85.2371 114.4 85.6275 114.24 86.0273 114.239H96.6409C96.3089 114.827 95.9453 115.416 95.5501 116.005C95.1316 116.618 94.6792 117.207 94.195 117.77H87.3273C87.1715 117.77 87.0371 117.9 86.9242 118.16C86.8279 118.355 86.7704 118.566 86.7548 118.783V118.913C86.7548 118.931 86.7802 118.97 86.8327 119.03C86.8852 119.09 86.9276 119.138 86.9623 119.173C87.0268 119.252 87.1065 119.318 87.1969 119.367C87.2532 119.405 87.3144 119.436 87.379 119.458H91.3333C91.7642 119.445 92.1855 119.588 92.519 119.861C92.848 120.14 93.1141 120.486 93.2998 120.875C93.5019 121.29 93.6461 121.732 93.7284 122.186C93.8116 122.614 93.8552 123.049 93.8588 123.484V123.64C93.8518 124.129 93.7683 124.614 93.6115 125.077C93.4522 125.575 93.2293 126.051 92.9484 126.492C92.6944 126.898 92.3783 127.262 92.0116 127.57C91.6644 127.856 91.3002 127.998 90.9191 127.998H80.3055C80.4321 127.713 80.5754 127.436 80.7348 127.167C80.9516 126.787 81.1815 126.401 81.4242 126.012C81.667 125.623 81.8881 125.276 82.0874 124.973C82.2864 124.67 82.4126 124.519 82.4643 124.519H89.5369C89.7453 124.519 89.8664 124.441 89.9011 124.285C89.9367 124.123 89.9543 123.957 89.9536 123.791L89.9553 123.638Z" fill="#044973"/>
<path d="M102.233 121.639C102.24 120.765 102.385 119.898 102.663 119.069C102.933 118.219 103.327 117.414 103.833 116.68C104.301 115.997 104.887 115.404 105.563 114.927C106.222 114.469 106.916 114.24 107.644 114.239H116.255C115.856 114.897 115.453 115.517 115.045 116.099C114.634 116.683 114.177 117.235 113.679 117.748H108.268C108.054 117.756 107.849 117.834 107.683 117.969C107.465 118.135 107.272 118.331 107.111 118.553C106.92 118.809 106.755 119.083 106.617 119.37C106.475 119.659 106.357 119.958 106.265 120.266C106.214 120.474 106.17 120.669 106.135 120.85C106.103 121.009 106.086 121.169 106.083 121.331C106.089 121.691 106.16 122.047 106.292 122.382C106.425 122.745 106.604 123.09 106.824 123.408C107.022 123.698 107.259 123.96 107.527 124.187C107.778 124.395 108.025 124.499 108.268 124.499H113.265C112.935 125.087 112.571 125.689 112.173 126.304C111.77 126.921 111.299 127.492 110.768 128.004H109.101C108.256 128.004 107.414 127.909 106.591 127.719C105.796 127.541 105.048 127.201 104.393 126.719C103.751 126.242 103.231 125.598 102.832 124.785C102.433 123.971 102.234 122.941 102.233 121.695V121.639Z" fill="#044973"/>
<path d="M124.007 128L123.565 125.067C123.48 125.273 123.38 125.472 123.266 125.664C123.1 125.958 122.909 126.269 122.693 126.599C122.477 126.928 122.265 127.231 122.056 127.507C121.848 127.785 121.692 127.949 121.588 128H112.795C112.805 127.938 112.823 127.877 112.847 127.818V127.741L120.339 115.797C120.398 115.649 120.477 115.509 120.573 115.382C120.819 115.035 121.103 114.717 121.42 114.434C121.568 114.304 121.694 114.239 121.798 114.239H125.283C125.422 114.239 125.547 114.335 125.661 114.525C125.787 114.747 125.887 114.982 125.96 115.226C126.048 115.512 126.122 115.802 126.181 116.096C126.242 116.399 126.298 116.654 126.35 116.861L127.729 128H124.007ZM119.349 124.522H123.563L122.835 118.419L119.349 124.261V124.522Z" fill="#044973"/>
<path d="M132.695 114.239H142.243C142.424 114.236 142.604 114.27 142.772 114.34C142.94 114.409 143.092 114.511 143.218 114.641C143.497 114.925 143.718 115.26 143.869 115.628C144.036 116.029 144.158 116.447 144.233 116.875C144.306 117.265 144.345 117.661 144.35 118.058C144.358 118.747 144.216 119.429 143.933 120.057C143.674 120.637 143.318 121.168 142.88 121.629C142.475 122.055 141.994 122.403 141.462 122.654C141.001 122.882 140.495 123.006 139.98 123.018H134.126L132.669 128.005H128.665L132.695 114.239ZM134.49 121.717L136.494 119.509H139.823C139.84 119.509 139.876 119.471 139.927 119.393C139.985 119.305 140.037 119.215 140.083 119.121C140.136 119.017 140.187 118.917 140.24 118.821C140.282 118.755 140.309 118.679 140.318 118.601L140.369 118.471C140.343 118.432 140.325 118.388 140.318 118.341C140.261 118.217 140.191 118.1 140.109 117.991C140.005 117.844 139.936 117.77 139.901 117.77H135.635L134.49 121.717Z" fill="#044973"/>
<path d="M146.769 114.239H150.775L146.769 128H142.763L146.769 114.239Z" fill="#044973"/>
<path d="M154.807 117.741H150.879V117.715C150.961 117.516 151.061 117.325 151.178 117.144C151.36 116.833 151.582 116.487 151.842 116.106C152.102 115.725 152.366 115.357 152.635 115.002C152.835 114.722 153.067 114.465 153.324 114.236H163.755C163.609 114.561 163.444 114.877 163.262 115.183C163.036 115.573 162.793 115.959 162.533 116.339C162.302 116.683 162.05 117.012 161.779 117.325C161.536 117.603 161.363 117.741 161.259 117.741H158.787L155.795 127.997H151.815L154.807 117.741Z" fill="#044973"/>
<path d="M169.741 128L169.299 125.067C169.214 125.273 169.114 125.472 169 125.664C168.835 125.958 168.644 126.269 168.427 126.598C168.21 126.928 167.998 127.23 167.789 127.507C167.582 127.784 167.425 127.948 167.322 128H158.527C158.537 127.937 158.554 127.876 158.579 127.818V127.74L166.071 115.797C166.13 115.649 166.209 115.509 166.306 115.382C166.43 115.205 166.564 115.036 166.709 114.875C166.847 114.719 166.995 114.571 167.151 114.433C167.298 114.303 167.424 114.238 167.528 114.238H171.011C171.15 114.238 171.275 114.334 171.389 114.524C171.515 114.746 171.615 114.981 171.688 115.225C171.776 115.511 171.85 115.801 171.909 116.095C171.969 116.398 172.026 116.653 172.078 116.86L173.457 127.999L169.741 128ZM165.083 124.522H169.297L168.569 118.419L165.083 124.261V124.522Z" fill="#044973"/>
<path d="M174.399 128L178.431 114.239H182.412L179.394 124.495H186C186.017 124.495 185.934 124.643 185.753 124.937C185.571 125.231 185.35 125.573 185.09 125.962C184.83 126.351 184.557 126.741 184.271 127.13C184.053 127.437 183.814 127.728 183.555 128H174.399Z" fill="#044973"/>
</g>
<defs>
<linearGradient id="paint0_linear_2127_42" x1="82.8699" y1="35.6876" x2="96.8571" y2="107.886" gradientUnits="userSpaceOnUse">
<stop stop-color="#2A3A5D"/>
<stop offset="1" stop-color="#00A551"/>
</linearGradient>
<linearGradient id="paint1_linear_2127_42" x1="97.1474" y1="36.806" x2="110.113" y2="49.7952" gradientUnits="userSpaceOnUse">
<stop stop-color="#044973"/>
<stop offset="0.81" stop-color="#00A551"/>
</linearGradient>
<linearGradient id="paint2_linear_2127_42" x1="74.4464" y1="43.6992" x2="93.8756" y2="66.8144" gradientUnits="userSpaceOnUse">
<stop stop-color="#044973"/>
<stop offset="0.81" stop-color="#00A551"/>
</linearGradient>
<linearGradient id="paint3_linear_2127_42" x1="117.341" y1="12.1479" x2="136.416" y2="33.3786" gradientUnits="userSpaceOnUse">
<stop offset="0.08" stop-color="#2A3A5D"/>
<stop offset="1" stop-color="#00A551"/>
</linearGradient>
<clipPath id="clip0_2127_42">
<rect width="186" height="128" fill="white"/>
</clipPath>
</defs>
</svg>
